<svg width="35" height="41" viewBox="0 0 35 41" fill="none" xmlns="http://www.w3.org/2000/svg">
<path d="M33.0858 5.47541H25.703V1.91404C25.703 0.858718 24.8442 0 23.789 0H1.91404C0.858535 0 0 0.858718 0 1.91404V32.8658C0 33.9212 0.858535 34.78 1.91413 34.78H9.29688V38.3411C9.29688 39.3964 10.1554 40.2551 11.211 40.2551H33.0859C34.1412 40.2551 35 39.3964 35 38.3411V7.38946C34.9999 6.33395 34.1411 5.47541 33.0858 5.47541ZM1.91404 33.1392C1.76369 33.1392 1.64063 33.0165 1.64063 32.8658V1.91404C1.64063 1.76325 1.76369 1.64064 1.91404 1.64064H23.789C23.9396 1.64064 24.0624 1.76325 24.0624 1.91404V5.47541V32.8658C24.0624 33.0165 23.9396 33.1392 23.789 33.1392H1.91404ZM33.3593 38.34C33.3593 38.4916 33.2365 38.6133 33.0859 38.6133H11.2109C11.0606 38.6133 10.9375 38.4915 10.9375 38.34V34.8921H23.789C24.8443 34.8921 25.6947 34.1221 25.6947 33.0667V32.8613V32.4506V32.2452C25.6947 31.8344 25.6947 32.0824 25.6947 31.629C25.6947 31.1757 25.6947 31.4237 25.6947 31.0129V30.8075L25.6728 26.6999V26.4945C25.6728 26.2891 25.6728 26.3316 25.6728 25.8782C25.6728 25.4248 25.6728 25.4675 25.6728 25.2621V25.0568L25.7362 21.1545V20.9491C25.7362 20.5205 25.7362 20.333 25.7362 20.333C25.7362 20.333 25.7362 19.9222 25.7362 19.7168V19.3061L25.7031 15.424V15.1826C25.7031 15.0987 25.7031 14.993 25.7031 14.7877C25.7031 14.3342 25.7031 14.4484 25.7031 14.3768V13.7834V7.11605H33.0859C33.2365 7.11605 33.3593 7.23857 33.3593 7.38946V38.34Z" fill="#FFFFFF"/>
<path d="M25.6286 20.9971C27.763 17.7862 28.1592 17.4567 28.1592 16.2767C28.1592 14.6603 26.8965 13.35 25.3388 13.35C23.7811 13.35 24.0733 14.5432 24.0733 16.1596C24.0733 17.3396 24.0733 17.5644 25.0489 20.9971C25.189 21.207 25.4886 21.207 25.6286 20.9971ZM25.3388 17.4961C24.6898 17.4961 24.1636 16.9502 24.1636 16.2767C24.1636 15.6032 24.6898 15.0572 25.3388 15.0572C25.9878 15.0572 26.514 15.6032 26.514 16.2767C26.514 16.9502 25.9878 17.4961 25.3388 17.4961Z" fill="#FFFFFF"/>
<path d="M17.5498 19.3691H14.4691C13.9043 19.3691 13.4422 18.907 13.4422 18.3422C13.4422 17.7774 13.9043 17.3153 14.4691 17.3153H17.5498C17.5498 17.3153 20.6306 13.8815 20.6306 12.1807C20.6306 10.4799 19.2507 9.09998 17.5498 9.09998C15.849 9.09998 14.4691 10.4799 14.4691 12.1807C14.4691 12.999 15.1815 14.2153 15.9228 15.2615H14.4691C12.7715 15.2615 11.3883 16.6446 11.3883 18.3422C11.3883 20.0398 12.7715 21.4229 14.4691 21.4229H17.5498C18.1146 21.4229 18.5767 21.8851 18.5767 22.4499C18.5767 23.0147 18.1146 23.4768 17.5498 23.4768H10.1528C9.63939 24.2726 9.06817 25.0075 8.63494 25.5306H17.5498C19.2474 25.5306 20.6306 24.1475 20.6306 22.4499C20.6306 20.7522 19.2474 19.3691 17.5498 19.3691ZM17.5498 11.1538C18.1178 11.1538 18.5767 11.6127 18.5767 12.1807C18.5767 12.7487 18.1178 13.2076 17.5498 13.2076C16.9818 13.2076 16.5229 12.7487 16.5229 12.1807C16.5229 11.6127 16.9818 11.1538 17.5498 11.1538ZM7.28069 17.3153C5.57987 17.3153 4.19995 18.6952 4.19995 20.396C4.19995 22.0969 7.28069 25.5306 7.28069 25.5306C7.28069 25.5306 10.3614 22.0969 10.3614 20.396C10.3614 18.6952 8.98152 17.3153 7.28069 17.3153ZM7.28069 21.4229C6.71268 21.4229 6.25378 20.964 6.25378 20.396C6.25378 19.828 6.71268 19.3691 7.28069 19.3691C7.8487 19.3691 8.30761 19.828 8.30761 20.396C8.30761 20.964 7.8487 21.4229 7.28069 21.4229Z" fill="#FFFFFF"/>
</svg>
