<svg width="34" height="33" viewBox="0 0 34 33" fill="none" xmlns="http://www.w3.org/2000/svg">
<path d="M30.6266 6.98214H5.3125C4.72547 6.98214 4.25 6.46139 4.25 5.81845C4.25 5.17551 4.72547 4.65476 5.3125 4.65476H30.8125C31.3995 4.65476 31.875 4.13401 31.875 3.49107C31.875 1.56298 30.4479 0 28.6875 0H4.25C1.90254 0 0 2.08373 0 4.65476V27.9286C0 30.4996 1.90254 32.5833 4.25 32.5833H30.6266C32.4873 32.5833 34 31.0174 34 29.0923V10.4732C34 8.54803 32.4873 6.98214 30.6266 6.98214ZM27.625 22.1101C26.4516 22.1101 25.5 21.0679 25.5 19.7827C25.5 18.4976 26.4516 17.4554 27.625 17.4554C28.7984 17.4554 29.75 18.4976 29.75 19.7827C29.75 21.0679 28.7984 22.1101 27.625 22.1101Z" fill="#787878"/>
<path d="M18.046 18.7482L14.9459 17.8351C14.5871 17.7311 14.3373 17.3931 14.3373 17.0175C14.3373 16.5465 14.7162 16.1651 15.1841 16.1651H17.0872C17.4374 16.1651 17.7819 16.272 18.0689 16.4685C18.244 16.5869 18.4794 16.558 18.6287 16.4107L19.6276 15.4283C19.8314 15.2289 19.8027 14.8967 19.5759 14.7204C18.8727 14.1656 17.9943 13.8565 17.093 13.8536V12.4667C17.093 12.2124 16.8863 12.0044 16.6337 12.0044H15.7152C15.4626 12.0044 15.2559 12.2124 15.2559 12.4667V13.8536H15.1841C13.3556 13.8536 11.8859 15.4341 12.0553 17.3093C12.1759 18.6413 13.1863 19.7248 14.4608 20.1004L17.403 20.9672C17.7618 21.0741 18.0115 21.4093 18.0115 21.7849C18.0115 22.2559 17.6326 22.6373 17.1647 22.6373H15.2616C14.9114 22.6373 14.567 22.5304 14.2799 22.3339C14.1048 22.2154 13.8694 22.2443 13.7202 22.3917L12.7212 23.3741C12.5174 23.5734 12.5462 23.9057 12.7729 24.082C13.4762 24.6367 14.3545 24.9459 15.2559 24.9488V26.3357C15.2559 26.5899 15.4626 26.798 15.7152 26.798H16.6337C16.8863 26.798 17.093 26.5899 17.093 26.3357V24.943C18.4306 24.917 19.685 24.1166 20.1271 22.8424C20.7442 21.0626 19.708 19.2365 18.046 18.7482Z" fill="white"/>
</svg>
