<svg width="44" height="40" viewBox="0 0 44 40" fill="none" xmlns="http://www.w3.org/2000/svg">
<path d="M20.7055 11.2734L24.8511 12.3906C24.9919 12.4243 25.1178 12.5046 25.2094 12.619C25.301 12.7335 25.3531 12.8756 25.3575 13.0234C25.3575 13.3828 25.0451 13.6797 24.6609 13.6797H21.9415C21.6484 13.6788 21.3583 13.6205 21.0867 13.5078C20.6864 13.3359 20.225 13.375 19.918 13.6641L18.4666 15.0312C18.3995 15.0913 18.3416 15.1614 18.2947 15.2391C18.2348 15.3396 18.1949 15.4512 18.1774 15.5676C18.1599 15.684 18.165 15.8027 18.1926 15.917C18.2201 16.0313 18.2695 16.1389 18.3379 16.2336C18.4063 16.3283 18.4924 16.4082 18.5911 16.4688C19.3949 16.9621 20.2948 17.2688 21.2272 17.3672V18.75C21.2272 19.4375 21.8254 20 22.5541 20H23.8809C24.6104 20 25.2086 19.4375 25.2086 18.75V17.375C27.724 17.0938 29.6268 14.9531 29.2953 12.4531C29.0546 10.6562 27.5796 9.22656 25.7387 8.72656L21.5931 7.60938C21.4523 7.5757 21.3264 7.49541 21.2348 7.38098C21.1432 7.26654 21.0911 7.12437 21.0867 6.97656C21.0867 6.61719 21.3991 6.32031 21.7833 6.32031H24.5027C24.7968 6.32078 25.0881 6.37913 25.3606 6.49219C25.7601 6.66406 26.2222 6.625 26.5293 6.33594L27.9806 4.96875C28.0456 4.90993 28.1014 4.84146 28.1464 4.76562C28.2068 4.66514 28.2472 4.55339 28.2652 4.43686C28.2831 4.32032 28.2783 4.2013 28.2511 4.08667C28.2238 3.97204 28.1746 3.86408 28.1063 3.76901C28.0379 3.67395 27.9519 3.59367 27.8531 3.53281C27.049 3.03948 26.1489 2.73277 25.2162 2.63438V1.25C25.2162 0.5625 24.6188 0 23.8893 0H22.5625C21.833 0 21.2357 0.5625 21.2357 1.25V2.625C18.7233 2.90625 16.8167 5.04688 17.1482 7.54688C17.388 9.34375 18.8676 10.7734 20.7055 11.2734ZM43.1794 25.6328C42.278 24.7969 40.8725 24.8516 39.9253 25.6328L32.8671 31.4062C32.0007 32.1171 30.9224 32.5031 29.8116 32.5H20.7773C20.4532 32.5 20.1423 32.3683 19.9131 32.1339C19.6839 31.8995 19.5551 31.5815 19.5551 31.25C19.5551 30.9185 19.6839 30.6005 19.9131 30.3661C20.1423 30.1317 20.4532 30 20.7773 30H26.7577C27.9722 30 29.1035 29.1484 29.2976 27.9219C29.3215 27.781 29.3332 27.6383 29.3327 27.4953C29.3315 26.8331 29.0734 26.1984 28.6151 25.7306C28.1569 25.2627 27.5358 25 26.8883 25H14.6663C12.6051 25.0006 10.6067 25.7257 9.00605 27.0539L5.45405 30H1.2222C0.898049 30 0.587179 30.1317 0.357973 30.3661C0.128767 30.6005 0 30.9185 0 31.25L0 38.75C0 39.0815 0.128767 39.3995 0.357973 39.6339C0.587179 39.8683 0.898049 40 1.2222 40H28.4749C29.5853 40.0009 30.6629 39.6151 31.5304 38.9062L43.0824 29.4531C43.3603 29.2258 43.5863 28.9392 43.7446 28.6133C43.903 28.2874 43.9898 27.93 43.9992 27.5662C44.0085 27.2024 43.94 26.8409 43.7985 26.507C43.6571 26.173 43.4461 25.8747 43.1802 25.6328H43.1794Z" fill="#787878"/>
</svg>
