<svg width="210" height="62" viewBox="0 0 942 284" fill="none" xmlns="http://www.w3.org/2000/svg">
<path d="M673.976 43.9144C675.96 41.9736 678.318 41 681.033 41H841.628C844.346 41 846.7 41.9736 848.685 43.9144C850.671 45.8579 851.664 48.1603 851.664 50.819V80.2737H876.758C879.582 80.2737 882.641 80.9384 885.934 82.2677C889.228 83.5992 891.868 85.2326 893.853 87.1761L924.907 117.551C926.265 118.881 927.44 120.414 928.435 122.153C929.428 123.889 930.16 125.453 930.631 126.831C931.101 128.213 931.442 130.103 931.649 132.508C931.857 134.913 931.99 136.677 932.042 137.802C932.092 138.926 932.092 140.87 932.042 143.632C931.989 146.395 931.963 148.183 931.963 149.003V198.092C934.68 198.092 937.033 199.063 939.02 201.009C941.006 202.948 942 205.251 942 207.911C942 209.442 941.792 210.799 941.374 211.974C940.955 213.15 940.25 214.096 939.255 214.813C938.262 215.53 937.399 216.116 936.668 216.578C935.935 217.037 934.706 217.343 932.981 217.497C931.257 217.652 930.081 217.755 929.453 217.806C928.825 217.854 927.493 217.854 925.455 217.806C923.414 217.755 922.239 217.729 921.924 217.729H911.888C911.888 228.567 907.967 237.823 900.127 245.494C892.284 253.164 882.823 257 871.74 257C860.658 257 851.195 253.164 843.354 245.494C835.512 237.824 831.593 228.567 831.593 217.729H771.369C771.369 228.567 767.447 237.823 759.607 245.494C751.768 253.164 742.305 257 731.222 257C720.136 257 710.679 253.164 702.836 245.494C694.994 237.824 691.074 228.567 691.074 217.729C690.762 217.729 689.585 217.755 687.548 217.806C685.508 217.854 684.175 217.854 683.548 217.806C682.919 217.755 681.741 217.652 680.017 217.497C678.293 217.343 677.066 217.038 676.333 216.578C675.599 216.118 674.739 215.53 673.746 214.813C672.752 214.096 672.045 213.15 671.628 211.974C671.205 210.799 671 209.442 671 207.911V50.8206C670.998 48.1614 671.99 45.8617 673.976 43.9144ZM857.628 231.535C861.599 235.42 866.306 237.367 871.742 237.367C877.179 237.367 881.884 235.422 885.858 231.535C889.831 227.652 891.816 223.047 891.816 217.73C891.816 212.412 889.828 207.806 885.858 203.92C881.885 200.037 877.18 198.092 871.742 198.092C866.306 198.092 861.6 200.035 857.628 203.92C853.653 207.806 851.666 212.412 851.666 217.73C851.666 223.047 853.653 227.652 857.628 231.535ZM851.666 139.183H911.89V134.582C911.89 133.252 911.421 132.127 910.48 131.206L879.898 101.293C878.957 100.372 877.805 99.9127 876.446 99.9127H851.666V139.183ZM717.108 231.535C721.08 235.42 725.786 237.367 731.222 237.367C736.66 237.367 741.367 235.422 745.339 231.535C749.311 227.652 751.298 223.047 751.298 217.73C751.298 212.412 749.311 207.806 745.339 203.92C741.367 200.037 736.66 198.092 731.222 198.092C725.786 198.092 721.08 200.035 717.108 203.92C713.136 207.808 711.147 212.412 711.147 217.73C711.147 223.047 713.132 227.652 717.108 231.535Z" fill="white"/>
<path d="M749.468 133.59L772.045 139.781C774.658 140.487 776.477 142.779 776.477 145.326C776.477 148.52 773.717 151.107 770.31 151.107H756.45C753.9 151.107 751.391 150.382 749.3 149.049C748.025 148.246 746.311 148.442 745.224 149.441L737.949 156.103C736.465 157.455 736.674 159.709 738.325 160.904C743.447 164.666 749.844 166.763 756.408 166.782V176.187C756.408 177.912 757.913 179.323 759.753 179.323H766.443C768.282 179.323 769.787 177.912 769.787 176.187V166.782H770.31C783.626 166.782 794.33 156.064 793.096 143.347C792.218 134.315 784.86 126.967 775.578 124.419L754.15 118.541C751.537 117.816 749.719 115.543 749.719 112.996C749.719 109.802 752.478 107.216 755.886 107.216H769.746C772.296 107.216 774.805 107.941 776.895 109.273C778.17 110.076 779.884 109.88 780.972 108.881L788.246 102.219C789.731 100.867 789.522 98.6138 787.87 97.4185C782.748 93.6564 776.352 91.5598 769.787 91.5402V82.135C769.787 80.4107 768.282 78.9999 766.443 78.9999H759.753C757.913 78.9999 756.408 80.4107 756.408 82.135V91.5794C746.666 91.7558 737.531 97.1834 734.312 105.824C729.817 117.895 737.364 130.278 749.468 133.59Z" fill="#005537"/>
<path d="M31.8 84V110.8H69V128.4H31.8V188H13V81.4C13 71.5333 16.1333 63.6 22.4 57.6C26.6667 53.6 31.4667 51 36.8 49.8C42.1333 48.6 48.6667 48 56.4 48H77.6V65.6H53.8C39.1333 65.6 31.8 71.7333 31.8 84ZM140.141 123.416C138.581 122.896 136.397 122.376 133.589 121.856C130.885 121.232 127.713 120.92 124.073 120.92C121.993 120.92 119.757 121.128 117.365 121.544C115.077 121.96 113.465 122.324 112.529 122.636V188H93.6526V110.312C97.2926 108.96 101.817 107.712 107.225 106.568C112.737 105.32 118.821 104.696 125.477 104.696C126.725 104.696 128.181 104.8 129.845 105.008C131.509 105.112 133.173 105.32 134.837 105.632C136.501 105.84 138.113 106.152 139.673 106.568C141.233 106.88 142.481 107.192 143.417 107.504L140.141 123.416ZM152.047 147.596C152.047 140.42 153.087 134.128 155.167 128.72C157.351 123.312 160.211 118.84 163.747 115.304C167.283 111.664 171.339 108.96 175.915 107.192C180.491 105.32 185.171 104.384 189.955 104.384C201.187 104.384 209.923 107.868 216.163 114.836C222.507 121.804 225.679 132.204 225.679 146.036C225.679 147.076 225.627 148.272 225.523 149.624C225.523 150.872 225.471 152.016 225.367 153.056H171.547C172.067 159.608 174.355 164.704 178.411 168.344C182.571 171.88 188.551 173.648 196.351 173.648C200.927 173.648 205.087 173.232 208.831 172.4C212.679 171.568 215.695 170.684 217.879 169.748L220.375 185.192C219.335 185.712 217.879 186.284 216.007 186.908C214.239 187.428 212.159 187.896 209.767 188.312C207.479 188.832 204.983 189.248 202.279 189.56C199.575 189.872 196.819 190.028 194.011 190.028C186.835 190.028 180.595 188.988 175.291 186.908C169.987 184.724 165.619 181.76 162.187 178.016C158.755 174.168 156.207 169.696 154.543 164.6C152.879 159.4 152.047 153.732 152.047 147.596ZM206.803 139.172C206.803 136.572 206.439 134.128 205.711 131.84C204.983 129.448 203.891 127.42 202.435 125.756C201.083 123.988 199.367 122.636 197.287 121.7C195.311 120.66 192.919 120.14 190.111 120.14C187.199 120.14 184.651 120.712 182.467 121.856C180.283 122.896 178.411 124.3 176.851 126.068C175.395 127.836 174.251 129.864 173.419 132.152C172.587 134.44 172.015 136.78 171.703 139.172H206.803ZM244.756 84.884L263.632 81.764V106.412H292.648V122.168H263.632V155.396C263.632 161.948 264.672 166.628 266.752 169.436C268.832 172.244 272.368 173.648 277.36 173.648C280.792 173.648 283.808 173.284 286.408 172.556C289.112 171.828 291.244 171.152 292.804 170.528L295.924 185.504C293.74 186.44 290.88 187.376 287.344 188.312C283.808 189.352 279.648 189.872 274.864 189.872C269.04 189.872 264.152 189.092 260.2 187.532C256.352 185.972 253.284 183.736 250.996 180.824C248.708 177.808 247.096 174.22 246.16 170.06C245.224 165.796 244.756 160.96 244.756 155.552V84.884ZM305 147.596C305 140.42 306.04 134.128 308.12 128.72C310.304 123.312 313.164 118.84 316.7 115.304C320.236 111.664 324.292 108.96 328.868 107.192C333.444 105.32 338.124 104.384 342.908 104.384C354.14 104.384 362.876 107.868 369.116 114.836C375.46 121.804 378.632 132.204 378.632 146.036C378.632 147.076 378.58 148.272 378.476 149.624C378.476 150.872 378.424 152.016 378.32 153.056H324.5C325.02 159.608 327.308 164.704 331.364 168.344C335.524 171.88 341.504 173.648 349.304 173.648C353.88 173.648 358.04 173.232 361.784 172.4C365.632 171.568 368.648 170.684 370.832 169.748L373.328 185.192C372.288 185.712 370.832 186.284 368.96 186.908C367.192 187.428 365.112 187.896 362.72 188.312C360.432 188.832 357.936 189.248 355.232 189.56C352.528 189.872 349.772 190.028 346.964 190.028C339.788 190.028 333.548 188.988 328.244 186.908C322.94 184.724 318.572 181.76 315.14 178.016C311.708 174.168 309.16 169.696 307.496 164.6C305.832 159.4 305 153.732 305 147.596ZM359.756 139.172C359.756 136.572 359.392 134.128 358.664 131.84C357.936 129.448 356.844 127.42 355.388 125.756C354.036 123.988 352.32 122.636 350.24 121.7C348.264 120.66 345.872 120.14 343.064 120.14C340.152 120.14 337.604 120.712 335.42 121.856C333.236 122.896 331.364 124.3 329.804 126.068C328.348 127.836 327.204 129.864 326.372 132.152C325.54 134.44 324.968 136.78 324.656 139.172H359.756ZM394.121 147.284C394.121 141.252 395.057 135.636 396.929 130.436C398.801 125.132 401.453 120.556 404.885 116.708C408.421 112.86 412.685 109.844 417.677 107.66C422.669 105.476 428.285 104.384 434.525 104.384C442.221 104.384 449.501 105.788 456.365 108.596L452.309 124.04C450.125 123.104 447.629 122.324 444.821 121.7C442.117 121.076 439.205 120.764 436.085 120.764C428.701 120.764 423.085 123.104 419.237 127.784C415.389 132.36 413.465 138.86 413.465 147.284C413.465 155.396 415.285 161.844 418.925 166.628C422.565 171.308 428.701 173.648 437.333 173.648C440.557 173.648 443.729 173.336 446.849 172.712C449.969 172.088 452.673 171.308 454.961 170.372L457.613 185.972C455.533 187.012 452.361 187.948 448.097 188.78C443.937 189.612 439.621 190.028 435.149 190.028C428.181 190.028 422.097 188.988 416.897 186.908C411.801 184.724 407.537 181.76 404.105 178.016C400.777 174.168 398.281 169.644 396.617 164.444C394.953 159.14 394.121 153.42 394.121 147.284ZM491.259 188H472.383V106.412H491.259V188ZM493.287 82.544C493.287 86.08 492.143 88.888 489.855 90.968C487.567 93.048 484.863 94.088 481.743 94.088C478.519 94.088 475.763 93.048 473.475 90.968C471.187 88.888 470.043 86.08 470.043 82.544C470.043 78.904 471.187 76.044 473.475 73.964C475.763 71.884 478.519 70.844 481.743 70.844C484.863 70.844 487.567 71.884 489.855 73.964C492.143 76.044 493.287 78.904 493.287 82.544ZM514.404 84.884L533.28 81.764V106.412H562.296V122.168H533.28V155.396C533.28 161.948 534.32 166.628 536.4 169.436C538.48 172.244 542.016 173.648 547.008 173.648C550.44 173.648 553.456 173.284 556.056 172.556C558.76 171.828 560.892 171.152 562.452 170.528L565.572 185.504C563.388 186.44 560.528 187.376 556.992 188.312C553.456 189.352 549.296 189.872 544.512 189.872C538.688 189.872 533.8 189.092 529.848 187.532C526 185.972 522.932 183.736 520.644 180.824C518.356 177.808 516.744 174.22 515.808 170.06C514.872 165.796 514.404 160.96 514.404 155.552V84.884ZM647.155 106.412C638.731 137.404 628.955 165.484 617.827 190.652C615.747 195.332 613.615 199.336 611.431 202.664C609.247 205.992 606.803 208.748 604.099 210.932C601.395 213.116 598.379 214.676 595.051 215.612C591.723 216.652 587.875 217.172 583.507 217.172C580.595 217.172 577.683 216.86 574.771 216.236C571.963 215.612 569.831 214.936 568.375 214.208L571.807 199.076C575.551 200.532 579.243 201.26 582.883 201.26C587.771 201.26 591.567 200.064 594.271 197.672C597.079 195.384 599.523 191.796 601.603 186.908C595.675 175.468 589.955 162.988 584.443 149.468C579.035 135.948 574.199 121.596 569.935 106.412H590.059C591.099 110.78 592.347 115.512 593.803 120.608C595.363 125.704 597.027 130.904 598.795 136.208C600.563 141.408 602.435 146.608 604.411 151.808C606.387 157.008 608.363 161.844 610.339 166.316C613.667 157.06 616.787 147.232 619.699 136.832C622.611 126.328 625.263 116.188 627.655 106.412H647.155Z" fill="white"/>
<path d="M331.469 267V215.812H345.777C349.973 215.812 353.734 216.773 357.062 218.695C360.391 220.594 362.98 223.324 364.832 226.887C366.707 230.449 367.645 234.504 367.645 239.051V243.762C367.645 248.332 366.719 252.387 364.867 255.926C363.016 259.465 360.402 262.195 357.027 264.117C353.676 266.039 349.82 267 345.461 267H331.469ZM335.793 219.504V263.344H345.496C350.887 263.344 355.211 261.562 358.469 258C361.727 254.414 363.355 249.574 363.355 243.48V238.98C363.355 233.098 361.75 228.387 358.539 224.848C355.328 221.309 351.098 219.527 345.848 219.504H335.793ZM395.242 232.547C394.352 232.383 393.402 232.301 392.395 232.301C389.77 232.301 387.543 233.039 385.715 234.516C383.91 235.969 382.621 238.09 381.848 240.879V267H377.664V228.961H381.777L381.848 235.008C384.074 230.508 387.648 228.258 392.57 228.258C393.742 228.258 394.668 228.41 395.348 228.715L395.242 232.547ZM406.633 267H402.414V228.961H406.633V267ZM401.676 217.957C401.676 217.16 401.934 216.492 402.449 215.953C402.965 215.391 403.668 215.109 404.559 215.109C405.449 215.109 406.152 215.391 406.668 215.953C407.207 216.492 407.477 217.16 407.477 217.957C407.477 218.754 407.207 219.422 406.668 219.961C406.152 220.5 405.449 220.77 404.559 220.77C403.668 220.77 402.965 220.5 402.449 219.961C401.934 219.422 401.676 218.754 401.676 217.957ZM429.941 261.199L441.508 228.961H445.832L431.629 267H428.219L413.945 228.961H418.27L429.941 261.199ZM466.996 267.703C463.762 267.703 460.832 266.906 458.207 265.312C455.605 263.719 453.578 261.504 452.125 258.668C450.672 255.809 449.945 252.609 449.945 249.07V247.559C449.945 243.902 450.648 240.609 452.055 237.68C453.484 234.75 455.465 232.453 457.996 230.789C460.527 229.102 463.27 228.258 466.223 228.258C470.84 228.258 474.496 229.84 477.191 233.004C479.91 236.145 481.27 240.445 481.27 245.906V248.262H454.129V249.07C454.129 253.383 455.359 256.98 457.82 259.863C460.305 262.723 463.422 264.152 467.172 264.152C469.422 264.152 471.402 263.742 473.113 262.922C474.848 262.102 476.418 260.789 477.824 258.984L480.461 260.988C477.367 265.465 472.879 267.703 466.996 267.703ZM466.223 231.844C463.059 231.844 460.387 233.004 458.207 235.324C456.051 237.645 454.738 240.762 454.27 244.676H477.086V244.219C476.969 240.562 475.926 237.586 473.957 235.289C471.988 232.992 469.41 231.844 466.223 231.844ZM507.039 232.547C506.148 232.383 505.199 232.301 504.191 232.301C501.566 232.301 499.34 233.039 497.512 234.516C495.707 235.969 494.418 238.09 493.645 240.879V267H489.461V228.961H493.574L493.645 235.008C495.871 230.508 499.445 228.258 504.367 228.258C505.539 228.258 506.465 228.41 507.145 228.715L507.039 232.547Z" fill="white"/>
<path d="M536.432 231.68L538.464 229.646C539.324 228.785 540.715 228.785 541.566 229.646L559.355 247.447C560.215 248.308 560.215 249.701 559.355 250.553L541.575 268.354C540.715 269.215 539.324 269.215 538.473 268.354L536.441 266.32C535.572 265.45 535.59 264.03 536.478 263.178L547.495 252.669L521.196 252.669C519.979 252.669 519 251.689 519 250.47L519 247.539C519 246.32 519.979 245.34 521.196 245.34L547.495 245.34L536.469 234.822C535.572 233.97 535.554 232.55 536.432 231.68V231.68Z" fill="white"/>
</svg>
