<svg width="866" height="184" viewBox="0 0 866 184" fill="none" xmlns="http://www.w3.org/2000/svg">
<path d="M202.574 56.28V81.204H237.17V97.572H202.574V153H185.09V53.862C185.09 44.686 188.004 37.308 193.832 31.728C197.8 28.008 202.264 25.59 207.224 24.474C212.184 23.358 218.26 22.8 225.452 22.8H245.168V39.168H223.034C209.394 39.168 202.574 44.872 202.574 56.28ZM310.426 85.104C308.786 84.5573 306.49 84.0107 303.538 83.464C300.695 82.808 297.36 82.48 293.534 82.48C291.347 82.48 288.996 82.6987 286.482 83.136C284.076 83.5733 282.382 83.956 281.398 84.284V153H261.554V71.328C265.38 69.9067 270.136 68.5947 275.822 67.392C281.616 66.08 288.012 65.424 295.01 65.424C296.322 65.424 297.852 65.5333 299.602 65.752C301.351 65.8613 303.1 66.08 304.85 66.408C306.599 66.6267 308.294 66.9547 309.934 67.392C311.574 67.72 312.886 68.048 313.87 68.376L310.426 85.104ZM322.942 110.524C322.942 102.98 324.036 96.3653 326.222 90.68C328.518 84.9947 331.525 80.2933 335.242 76.576C338.96 72.7493 343.224 69.9067 348.034 68.048C352.845 66.08 357.765 65.096 362.794 65.096C374.602 65.096 383.786 68.7587 390.346 76.084C397.016 83.4093 400.35 94.3427 400.35 108.884C400.35 109.977 400.296 111.235 400.186 112.656C400.186 113.968 400.132 115.171 400.022 116.264H343.442C343.989 123.152 346.394 128.509 350.658 132.336C355.032 136.053 361.318 137.912 369.518 137.912C374.329 137.912 378.702 137.475 382.638 136.6C386.684 135.725 389.854 134.796 392.15 133.812L394.774 150.048C393.681 150.595 392.15 151.196 390.182 151.852C388.324 152.399 386.137 152.891 383.622 153.328C381.217 153.875 378.593 154.312 375.75 154.64C372.908 154.968 370.01 155.132 367.058 155.132C359.514 155.132 352.954 154.039 347.378 151.852C341.802 149.556 337.21 146.44 333.602 142.504C329.994 138.459 327.316 133.757 325.566 128.4C323.817 122.933 322.942 116.975 322.942 110.524ZM380.506 101.668C380.506 98.9347 380.124 96.3653 379.358 93.96C378.593 91.4453 377.445 89.3133 375.914 87.564C374.493 85.7053 372.689 84.284 370.502 83.3C368.425 82.2067 365.91 81.66 362.958 81.66C359.897 81.66 357.218 82.2613 354.922 83.464C352.626 84.5573 350.658 86.0333 349.018 87.892C347.488 89.7507 346.285 91.8827 345.41 94.288C344.536 96.6933 343.934 99.1533 343.606 101.668H380.506ZM420.406 44.596L440.25 41.316V67.228H470.754V83.792H440.25V118.724C440.25 125.612 441.343 130.532 443.53 133.484C445.716 136.436 449.434 137.912 454.682 137.912C458.29 137.912 461.46 137.529 464.194 136.764C467.036 135.999 469.278 135.288 470.918 134.632L474.198 150.376C471.902 151.36 468.895 152.344 465.178 153.328C461.46 154.421 457.087 154.968 452.058 154.968C445.935 154.968 440.796 154.148 436.642 152.508C432.596 150.868 429.371 148.517 426.966 145.456C424.56 142.285 422.866 138.513 421.882 134.14C420.898 129.657 420.406 124.573 420.406 118.888V44.596ZM483.739 110.524C483.739 102.98 484.833 96.3653 487.019 90.68C489.315 84.9947 492.322 80.2933 496.039 76.576C499.757 72.7493 504.021 69.9067 508.831 68.048C513.642 66.08 518.562 65.096 523.591 65.096C535.399 65.096 544.583 68.7587 551.143 76.084C557.813 83.4093 561.147 94.3427 561.147 108.884C561.147 109.977 561.093 111.235 560.983 112.656C560.983 113.968 560.929 115.171 560.819 116.264H504.239C504.786 123.152 507.191 128.509 511.455 132.336C515.829 136.053 522.115 137.912 530.315 137.912C535.126 137.912 539.499 137.475 543.435 136.6C547.481 135.725 550.651 134.796 552.947 133.812L555.571 150.048C554.478 150.595 552.947 151.196 550.979 151.852C549.121 152.399 546.934 152.891 544.419 153.328C542.014 153.875 539.39 154.312 536.547 154.64C533.705 154.968 530.807 155.132 527.855 155.132C520.311 155.132 513.751 154.039 508.175 151.852C502.599 149.556 498.007 146.44 494.399 142.504C490.791 138.459 488.113 133.757 486.363 128.4C484.614 122.933 483.739 116.975 483.739 110.524ZM541.303 101.668C541.303 98.9347 540.921 96.3653 540.155 93.96C539.39 91.4453 538.242 89.3133 536.711 87.564C535.29 85.7053 533.486 84.284 531.299 83.3C529.222 82.2067 526.707 81.66 523.755 81.66C520.694 81.66 518.015 82.2613 515.719 83.464C513.423 84.5573 511.455 86.0333 509.815 87.892C508.285 89.7507 507.082 91.8827 506.207 94.288C505.333 96.6933 504.731 99.1533 504.403 101.668H541.303ZM577.431 110.196C577.431 103.855 578.415 97.9507 580.383 92.484C582.351 86.908 585.139 82.0973 588.747 78.052C592.464 74.0067 596.947 70.836 602.195 68.54C607.443 66.244 613.347 65.096 619.907 65.096C627.997 65.096 635.651 66.572 642.867 69.524L638.603 85.76C636.307 84.776 633.683 83.956 630.731 83.3C627.888 82.644 624.827 82.316 621.547 82.316C613.784 82.316 607.88 84.776 603.835 89.696C599.789 94.5067 597.767 101.34 597.767 110.196C597.767 118.724 599.68 125.503 603.507 130.532C607.333 135.452 613.784 137.912 622.859 137.912C626.248 137.912 629.583 137.584 632.863 136.928C636.143 136.272 638.985 135.452 641.391 134.468L644.179 150.868C641.992 151.961 638.657 152.945 634.175 153.82C629.801 154.695 625.264 155.132 620.563 155.132C613.237 155.132 606.841 154.039 601.375 151.852C596.017 149.556 591.535 146.44 587.927 142.504C584.428 138.459 581.804 133.703 580.055 128.236C578.305 122.66 577.431 116.647 577.431 110.196ZM679.55 153H659.706V67.228H679.55V153ZM681.682 42.136C681.682 45.8533 680.479 48.8053 678.074 50.992C675.669 53.1787 672.826 54.272 669.546 54.272C666.157 54.272 663.259 53.1787 660.854 50.992C658.449 48.8053 657.246 45.8533 657.246 42.136C657.246 38.3093 658.449 35.3027 660.854 33.116C663.259 30.9293 666.157 29.836 669.546 29.836C672.826 29.836 675.669 30.9293 678.074 33.116C680.479 35.3027 681.682 38.3093 681.682 42.136ZM703.882 44.596L723.726 41.316V67.228H754.23V83.792H723.726V118.724C723.726 125.612 724.82 130.532 727.006 133.484C729.193 136.436 732.91 137.912 738.158 137.912C741.766 137.912 744.937 137.529 747.67 136.764C750.513 135.999 752.754 135.288 754.394 134.632L757.674 150.376C755.378 151.36 752.372 152.344 748.654 153.328C744.937 154.421 740.564 154.968 735.534 154.968C729.412 154.968 724.273 154.148 720.118 152.508C716.073 150.868 712.848 148.517 710.442 145.456C708.037 142.285 706.342 138.513 705.358 134.14C704.374 129.657 703.882 124.573 703.882 118.888V44.596ZM843.441 67.228C834.585 99.8093 824.308 129.329 812.609 155.788C810.422 160.708 808.181 164.917 805.885 168.416C803.589 171.915 801.02 174.812 798.177 177.108C795.334 179.404 792.164 181.044 788.665 182.028C785.166 183.121 781.121 183.668 776.529 183.668C773.468 183.668 770.406 183.34 767.345 182.684C764.393 182.028 762.152 181.317 760.621 180.552L764.229 164.644C768.165 166.175 772.046 166.94 775.873 166.94C781.012 166.94 785.002 165.683 787.845 163.168C790.797 160.763 793.366 156.991 795.553 151.852C789.321 139.825 783.308 126.705 777.513 112.492C771.828 98.2787 766.744 83.1907 762.261 67.228H783.417C784.51 71.82 785.822 76.7947 787.353 82.152C788.993 87.5093 790.742 92.976 792.601 98.552C794.46 104.019 796.428 109.485 798.505 114.952C800.582 120.419 802.66 125.503 804.737 130.204C808.236 120.473 811.516 110.141 814.577 99.208C817.638 88.1653 820.426 77.5053 822.941 67.228H843.441Z" fill="white"/>
<path d="M165.526 23.84C164.301 22.6147 162.845 22 161.168 22H61.9877C60.3092 22 58.8555 22.6147 57.6295 23.84C56.4032 25.0671 55.7895 26.5207 55.7895 28.1993V46.7958H40.292C38.5483 46.7958 36.6587 47.2154 34.6249 48.0547C32.5909 48.8953 30.9608 49.9266 29.7344 51.1537L10.5565 70.3313C9.71755 71.1706 8.99191 72.1384 8.37721 73.2369C7.7642 74.3326 7.31199 75.3198 7.02126 76.19C6.73121 77.0625 6.52021 78.2556 6.39231 79.7744C6.26408 81.2925 6.18198 82.4062 6.14975 83.1169C6.11888 83.8266 6.11888 85.054 6.14975 86.7977C6.18232 88.5421 6.1986 89.671 6.1986 90.1884V121.181C4.52038 121.181 3.06775 121.794 1.84038 123.023C0.613686 124.247 0 125.701 0 127.38C0 128.348 0.128233 129.204 0.386734 129.946C0.645575 130.689 1.08082 131.285 1.69552 131.738C2.30853 132.191 2.84148 132.561 3.29301 132.853C3.7459 133.143 4.50444 133.336 5.56965 133.433C6.63487 133.53 7.36084 133.596 7.7486 133.628C8.13635 133.658 8.95901 133.658 10.2179 133.628C11.4782 133.596 12.2042 133.579 12.3982 133.579H18.5965C18.5965 140.422 21.0183 146.266 25.86 151.109C30.7033 155.952 36.5464 158.373 43.3913 158.373C50.2354 158.373 56.0792 155.952 60.9215 151.109C65.7649 146.266 68.185 140.422 68.185 133.579H105.378C105.378 140.422 107.8 146.266 112.642 151.109C117.483 155.952 123.328 158.373 130.172 158.373C137.019 158.373 142.859 155.952 147.703 151.109C152.546 146.266 154.966 140.422 154.966 133.579C155.159 133.579 155.886 133.596 157.144 133.628C158.404 133.658 159.227 133.658 159.615 133.628C160.003 133.596 160.731 133.53 161.795 133.433C162.86 133.336 163.618 133.143 164.071 132.853C164.524 132.562 165.055 132.191 165.668 131.738C166.282 131.285 166.719 130.689 166.976 129.946C167.237 129.204 167.364 128.347 167.364 127.38V28.2003C167.365 26.5214 166.752 25.0694 165.526 23.84ZM52.1063 142.296C49.654 144.749 46.7474 145.978 43.3899 145.978C40.0321 145.978 37.1262 144.75 34.6724 142.296C32.2187 139.844 30.9923 136.937 30.9923 133.58C30.9923 130.223 32.2201 127.314 34.6724 124.861C37.1258 122.409 40.0318 121.181 43.3899 121.181C46.7474 121.181 49.6536 122.408 52.1063 124.861C54.5611 127.314 55.7881 130.223 55.7881 133.58C55.7881 136.937 54.5611 139.844 52.1063 142.296ZM55.7881 83.9884H18.5951V81.0839C18.5951 80.2442 18.8852 79.5339 19.4663 78.9524L38.3532 60.0662C38.934 59.4847 39.6454 59.195 40.4846 59.195H55.7881V83.9884ZM138.889 142.296C136.436 144.749 133.53 145.978 130.172 145.978C126.814 145.978 123.907 144.75 121.454 142.296C119.001 139.844 117.773 136.937 117.773 133.58C117.773 130.223 119.001 127.314 121.454 124.861C123.907 122.409 126.814 121.181 130.172 121.181C133.53 121.181 136.436 122.408 138.889 124.861C141.342 127.316 142.57 130.223 142.57 133.58C142.57 136.937 141.344 139.844 138.889 142.296Z" fill="white"/>
<path d="M99.8489 75.3691L113.352 79.3809C114.915 79.8379 116.002 81.3232 116.002 82.9736C116.002 85.043 114.352 86.7188 112.314 86.7188H104.025C102.5 86.7188 100.999 86.249 99.7489 85.3857C98.9863 84.8652 97.961 84.9922 97.3109 85.6396L92.96 89.9561C92.0723 90.832 92.1973 92.292 93.185 93.0664C96.2482 95.5039 100.074 96.8623 104 96.875V102.969C104 104.086 104.9 105 106 105H110.001C111.101 105 112.002 104.086 112.002 102.969V96.875H112.314C120.278 96.875 126.68 89.9307 125.942 81.6914C125.417 75.8389 121.016 71.0781 115.465 69.4277L102.65 65.6191C101.087 65.1494 99.999 63.6768 99.999 62.0264C99.999 59.957 101.649 58.2812 103.687 58.2812H111.977C113.502 58.2812 115.002 58.751 116.252 59.6143C117.015 60.1348 118.04 60.0078 118.69 59.3604L123.041 55.0439C123.929 54.168 123.804 52.708 122.816 51.9336C119.753 49.4961 115.927 48.1377 112.002 48.125V42.0312C112.002 40.9141 111.101 40 110.001 40H106C104.9 40 104 40.9141 104 42.0312V48.1504C98.1736 48.2646 92.7099 51.7812 90.7845 57.3799C88.0964 65.2002 92.6099 73.2236 99.8489 75.3691Z" fill="#005537"/>
</svg>
