<svg width="16" height="14" viewBox="0 0 16 14" fill="none" xmlns="http://www.w3.org/2000/svg">
<path d="M15.0188 4.39696L10.696 3.85091L8.76394 0.456652C8.41777 -0.148366 7.41474 -0.156057 7.0656 0.456652L5.13351 3.85091L0.810722 4.39696C0.0355195 4.49438 -0.275153 5.32243 0.287016 5.79671L3.41445 8.43725L2.67476 12.1673C2.54161 12.8416 3.3612 13.3466 4.04764 13.0313L7.91477 11.2701L11.7819 13.0313C12.4683 13.3441 13.2879 12.8416 13.1548 12.1673L12.4151 8.43725L15.5425 5.79671C16.1047 5.32243 15.794 4.49438 15.0188 4.39696ZM10.8913 8.00656L11.5925 11.5546L7.91477 9.88058L4.237 11.5546L4.93823 8.00656L1.96169 5.4942L6.07441 4.97634L7.91477 1.74616L9.75514 4.97634L13.8679 5.4942L10.8913 8.00656Z" fill="white"/>
</svg>
