<svg width="37" height="37" viewBox="0 0 37 37" fill="none" xmlns="http://www.w3.org/2000/svg">
<path d="M18.5 0C8.28345 0 0 8.28643 0 18.5C0 28.7195 8.28345 37 18.5 37C28.7166 37 37 28.7195 37 18.5C37 8.28643 28.7166 0 18.5 0ZM18.5 33.4194C10.2547 33.4194 3.58065 26.7481 3.58065 18.5C3.58065 10.2574 10.255 3.58065 18.5 3.58065C26.7423 3.58065 33.4194 10.2549 33.4194 18.5C33.4194 26.7452 26.7481 33.4194 18.5 33.4194ZM26.5001 14.3823C26.5001 19.3841 21.0977 19.4611 21.0977 21.3095V21.7823C21.0977 22.2766 20.6969 22.6774 20.2025 22.6774H16.7974C16.3031 22.6774 15.9022 22.2766 15.9022 21.7823V21.1363C15.9022 18.4699 17.9238 17.4039 19.4515 16.5474C20.7615 15.813 21.5644 15.3135 21.5644 14.3409C21.5644 13.0544 19.9233 12.2005 18.5966 12.2005C16.8668 12.2005 16.0682 13.0194 14.9457 14.4361C14.643 14.8181 14.0908 14.889 13.7025 14.5946L11.6269 13.0207C11.2459 12.7319 11.1606 12.1952 11.4296 11.8001C13.1921 9.21203 15.4371 7.75806 18.9322 7.75806C22.5928 7.75806 26.5001 10.6154 26.5001 14.3823ZM21.6331 26.8548C21.6331 28.5824 20.2276 29.9879 18.5 29.9879C16.7724 29.9879 15.3669 28.5824 15.3669 26.8548C15.3669 25.1273 16.7724 23.7218 18.5 23.7218C20.2276 23.7218 21.6331 25.1273 21.6331 26.8548Z" fill="#787878"/>
</svg>
